# xmcd
#
# Track frame offsets: 
#        150
#        14865
#        32280
#        47016
#        63149
#        81097
#        97076
#        110772
#        126751
#        144865
#        160299
#
# Disc length: 2380 seconds
#
# Revision: 0
# Processed by: cddbd v1.5.2PL0 Copyright (c) Steve Scherf et al.
# Submitted via: ExactAudioCopyFreeDBPlugin 1.0
#
DISCID=8d094a0b
DTITLE=Sara Evans - Slow Me Down
DYEAR=2014
DGENRE=Country
TTITLE0=Slow Me Down
TTITLE1=Not Over You (Featuring Gavin DeGraw)
TTITLE2=Put My Heart Down
TTITLE3=Cant Stop Loving You (Duet With Isaac Slade Of The Fray)
TTITLE4=You Never Know
TTITLE5=If I Run
TTITLE6=Sweet Spot
TTITLE7=Good Love Is Hard To Find
TTITLE8=Better Off (Featuring Vince Gill)
TTITLE9=Gotta Have You
TTITLE10=Revival
EXTD=
EXTT0=
EXTT1=
EXTT2=
EXTT3=
EXTT4=
EXTT5=
EXTT6=
EXTT7=
EXTT8=
EXTT9=
EXTT10=
PLAYORDER=
